<?xml version="1.0" encoding="utf-8"?>
<!-- Generator: Adobe Illustrator 27.7.0, SVG Export Plug-In . SVG Version: 6.00 Build 0)  -->
<svg version="1.1"
	 id="svg2" xmlns:svg="http://www.w3.org/2000/svg" xmlns:inkscape="http://www.inkscape.org/namespaces/inkscape" xmlns:sodipodi="http://inkscape.sourceforge.net/DTD/sodipodi-0.dtd" xmlns:cc="http://web.resource.org/cc/" xmlns:rdf="http://www.w3.org/1999/02/22-rdf-syntax-ns#" xmlns:dc="http://purl.org/dc/elements/1.1/"
	 xmlns="http://www.w3.org/2000/svg" xmlns:xlink="http://www.w3.org/1999/xlink" x="0px" y="0px" viewBox="0 0 370 433"
	 style="enable-background:new 0 0 370 433;" xml:space="preserve">
<style type="text/css">
	.st0{fill:#FFFFFF;}
</style>
<path id="path1312" class="st0" d="M95.2,341L6,251.7V195c0-31.2,0.3-56.7,0.8-56.7c0.4,0,30.5,29.7,66.7,66c37,37,66.8,66,67.7,66
	c1.7,0,1.8-7.2,2-133.8l0.3-133.7h42h42l0.3,133.2c0.2,126.1,0.3,133.2,2,133.2c1,0,30.5-28.8,67.2-65.5c36-36,65.8-65.5,66.2-65.5
	c0.4,0,0.8,25.5,0.8,56.7v56.7L274.8,341c-49.1,49.1-89.5,89.3-89.8,89.3S144.3,390.1,95.2,341z"/>
</svg>
