<svg id="visual" viewBox="0 0 960 300" width="960" height="300" xmlns="http://www.w3.org/2000/svg" xmlns:xlink="http://www.w3.org/1999/xlink" version="1.1"><path d="M0 66L22.8 64.3C45.7 62.7 91.3 59.3 137 58C182.7 56.7 228.3 57.3 274 56.5C319.7 55.7 365.3 53.3 411.2 56C457 58.7 503 66.3 548.8 67.2C594.7 68 640.3 62 686 61.5C731.7 61 777.3 66 823 65C868.7 64 914.3 57 937.2 53.5L960 50L960 0L937.2 0C914.3 0 868.7 0 823 0C777.3 0 731.7 0 686 0C640.3 0 594.7 0 548.8 0C503 0 457 0 411.2 0C365.3 0 319.7 0 274 0C228.3 0 182.7 0 137 0C91.3 0 45.7 0 22.8 0L0 0Z" fill="#ffffff"></path><path d="M0 36L22.8 38.3C45.7 40.7 91.3 45.3 137 48C182.7 50.7 228.3 51.3 274 52.8C319.7 54.3 365.3 56.7 411.2 55.2C457 53.7 503 48.3 548.8 47.3C594.7 46.3 640.3 49.7 686 49.8C731.7 50 777.3 47 823 44C868.7 41 914.3 38 937.2 36.5L960 35L960 0L937.2 0C914.3 0 868.7 0 823 0C777.3 0 731.7 0 686 0C640.3 0 594.7 0 548.8 0C503 0 457 0 411.2 0C365.3 0 319.7 0 274 0C228.3 0 182.7 0 137 0C91.3 0 45.7 0 22.8 0L0 0Z" fill="#c3cccb"></path><path d="M0 27L22.8 29.8C45.7 32.7 91.3 38.3 137 39.5C182.7 40.7 228.3 37.3 274 35.7C319.7 34 365.3 34 411.2 33.3C457 32.7 503 31.3 548.8 31.5C594.7 31.7 640.3 33.3 686 33.3C731.7 33.3 777.3 31.7 823 32.8C868.7 34 914.3 38 937.2 40L960 42L960 0L937.2 0C914.3 0 868.7 0 823 0C777.3 0 731.7 0 686 0C640.3 0 594.7 0 548.8 0C503 0 457 0 411.2 0C365.3 0 319.7 0 274 0C228.3 0 182.7 0 137 0C91.3 0 45.7 0 22.8 0L0 0Z" fill="#8a9b99"></path><path d="M0 17L22.8 17.7C45.7 18.3 91.3 19.7 137 21.8C182.7 24 228.3 27 274 29.2C319.7 31.3 365.3 32.7 411.2 32.3C457 32 503 30 548.8 27.5C594.7 25 640.3 22 686 21.7C731.7 21.3 777.3 23.7 823 26.2C868.7 28.7 914.3 31.3 937.2 32.7L960 34L960 0L937.2 0C914.3 0 868.7 0 823 0C777.3 0 731.7 0 686 0C640.3 0 594.7 0 548.8 0C503 0 457 0 411.2 0C365.3 0 319.7 0 274 0C228.3 0 182.7 0 137 0C91.3 0 45.7 0 22.8 0L0 0Z" fill="#546c6a"></path><path d="M0 18L22.8 17.3C45.7 16.7 91.3 15.3 137 14.2C182.7 13 228.3 12 274 11.3C319.7 10.7 365.3 10.3 411.2 11.2C457 12 503 14 548.8 13.5C594.7 13 640.3 10 686 9.8C731.7 9.7 777.3 12.3 823 12.7C868.7 13 914.3 11 937.2 10L960 9L960 0L937.2 0C914.3 0 868.7 0 823 0C777.3 0 731.7 0 686 0C640.3 0 594.7 0 548.8 0C503 0 457 0 411.2 0C365.3 0 319.7 0 274 0C228.3 0 182.7 0 137 0C91.3 0 45.7 0 22.8 0L0 0Z" fill="#20413e"></path></svg>