<svg id="visual" viewBox="0 0 960 540" width="960" height="540" xmlns="http://www.w3.org/2000/svg" xmlns:xlink="http://www.w3.org/1999/xlink" version="1.1"><rect x="0" y="0" width="960" height="540" fill="#000"></rect><path d="M0 201L22.8 201C45.7 201 91.3 201 137 192.7C182.7 184.3 228.3 167.7 274 167.5C319.7 167.3 365.3 183.7 411.2 191.7C457 199.7 503 199.3 548.8 202.2C594.7 205 640.3 211 686 210.8C731.7 210.7 777.3 204.3 823 203.3C868.7 202.3 914.3 206.7 937.2 208.8L960 211L960 0L937.2 0C914.3 0 868.7 0 823 0C777.3 0 731.7 0 686 0C640.3 0 594.7 0 548.8 0C503 0 457 0 411.2 0C365.3 0 319.7 0 274 0C228.3 0 182.7 0 137 0C91.3 0 45.7 0 22.8 0L0 0Z" fill="#a2ded0"></path><path d="M0 184L22.8 178.7C45.7 173.3 91.3 162.7 137 162C182.7 161.3 228.3 170.7 274 165.2C319.7 159.7 365.3 139.3 411.2 128.3C457 117.3 503 115.7 548.8 117.2C594.7 118.7 640.3 123.3 686 127.2C731.7 131 777.3 134 823 139.8C868.7 145.7 914.3 154.3 937.2 158.7L960 163L960 0L937.2 0C914.3 0 868.7 0 823 0C777.3 0 731.7 0 686 0C640.3 0 594.7 0 548.8 0C503 0 457 0 411.2 0C365.3 0 319.7 0 274 0C228.3 0 182.7 0 137 0C91.3 0 45.7 0 22.8 0L0 0Z" fill="#7fb4a9"></path><path d="M0 137L22.8 128.2C45.7 119.3 91.3 101.7 137 92.7C182.7 83.7 228.3 83.3 274 90.7C319.7 98 365.3 113 411.2 113.5C457 114 503 100 548.8 101.2C594.7 102.3 640.3 118.7 686 128.5C731.7 138.3 777.3 141.7 823 133.8C868.7 126 914.3 107 937.2 97.5L960 88L960 0L937.2 0C914.3 0 868.7 0 823 0C777.3 0 731.7 0 686 0C640.3 0 594.7 0 548.8 0C503 0 457 0 411.2 0C365.3 0 319.7 0 274 0C228.3 0 182.7 0 137 0C91.3 0 45.7 0 22.8 0L0 0Z" fill="#5d8b84"></path><path d="M0 77L22.8 80C45.7 83 91.3 89 137 88.7C182.7 88.3 228.3 81.7 274 80.8C319.7 80 365.3 85 411.2 85.3C457 85.7 503 81.3 548.8 83.2C594.7 85 640.3 93 686 95.7C731.7 98.3 777.3 95.7 823 87.8C868.7 80 914.3 67 937.2 60.5L960 54L960 0L937.2 0C914.3 0 868.7 0 823 0C777.3 0 731.7 0 686 0C640.3 0 594.7 0 548.8 0C503 0 457 0 411.2 0C365.3 0 319.7 0 274 0C228.3 0 182.7 0 137 0C91.3 0 45.7 0 22.8 0L0 0Z" fill="#3d6560"></path><path d="M0 65L22.8 62C45.7 59 91.3 53 137 49.2C182.7 45.3 228.3 43.7 274 45C319.7 46.3 365.3 50.7 411.2 50.8C457 51 503 47 548.8 44.5C594.7 42 640.3 41 686 41C731.7 41 777.3 42 823 45.2C868.7 48.3 914.3 53.7 937.2 56.3L960 59L960 0L937.2 0C914.3 0 868.7 0 823 0C777.3 0 731.7 0 686 0C640.3 0 594.7 0 548.8 0C503 0 457 0 411.2 0C365.3 0 319.7 0 274 0C228.3 0 182.7 0 137 0C91.3 0 45.7 0 22.8 0L0 0Z" fill="#20413e"></path></svg>