<svg id="visual" viewBox="0 0 960 300" width="960" height="300" xmlns="http://www.w3.org/2000/svg" xmlns:xlink="http://www.w3.org/1999/xlink" version="1.1"><rect x="0" y="0" width="960" height="300" fill="#001220"></rect><path d="M0 260L22.8 261C45.7 262 91.3 264 137 263.2C182.7 262.3 228.3 258.7 274 258.2C319.7 257.7 365.3 260.3 411.2 261.3C457 262.3 503 261.7 548.8 262.2C594.7 262.7 640.3 264.3 686 265C731.7 265.7 777.3 265.3 823 264.2C868.7 263 914.3 261 937.2 260L960 259L960 301L937.2 301C914.3 301 868.7 301 823 301C777.3 301 731.7 301 686 301C640.3 301 594.7 301 548.8 301C503 301 457 301 411.2 301C365.3 301 319.7 301 274 301C228.3 301 182.7 301 137 301C91.3 301 45.7 301 22.8 301L0 301Z" fill="#20413e"></path><path d="M0 274L22.8 273.8C45.7 273.7 91.3 273.3 137 273.3C182.7 273.3 228.3 273.7 274 271.3C319.7 269 365.3 264 411.2 262.7C457 261.3 503 263.7 548.8 265.5C594.7 267.3 640.3 268.7 686 269.2C731.7 269.7 777.3 269.3 823 268C868.7 266.7 914.3 264.3 937.2 263.2L960 262L960 301L937.2 301C914.3 301 868.7 301 823 301C777.3 301 731.7 301 686 301C640.3 301 594.7 301 548.8 301C503 301 457 301 411.2 301C365.3 301 319.7 301 274 301C228.3 301 182.7 301 137 301C91.3 301 45.7 301 22.8 301L0 301Z" fill="#28403d"></path><path d="M0 277L22.8 277.3C45.7 277.7 91.3 278.3 137 276.8C182.7 275.3 228.3 271.7 274 270.8C319.7 270 365.3 272 411.2 271.8C457 271.7 503 269.3 548.8 269.8C594.7 270.3 640.3 273.7 686 274.7C731.7 275.7 777.3 274.3 823 273C868.7 271.7 914.3 270.3 937.2 269.7L960 269L960 301L937.2 301C914.3 301 868.7 301 823 301C777.3 301 731.7 301 686 301C640.3 301 594.7 301 548.8 301C503 301 457 301 411.2 301C365.3 301 319.7 301 274 301C228.3 301 182.7 301 137 301C91.3 301 45.7 301 22.8 301L0 301Z" fill="#2f3e3c"></path><path d="M0 286L22.8 284.5C45.7 283 91.3 280 137 279C182.7 278 228.3 279 274 280C319.7 281 365.3 282 411.2 281.7C457 281.3 503 279.7 548.8 278.8C594.7 278 640.3 278 686 278.2C731.7 278.3 777.3 278.7 823 279C868.7 279.3 914.3 279.7 937.2 279.8L960 280L960 301L937.2 301C914.3 301 868.7 301 823 301C777.3 301 731.7 301 686 301C640.3 301 594.7 301 548.8 301C503 301 457 301 411.2 301C365.3 301 319.7 301 274 301C228.3 301 182.7 301 137 301C91.3 301 45.7 301 22.8 301L0 301Z" fill="#353d3b"></path><path d="M0 288L22.8 288.7C45.7 289.3 91.3 290.7 137 291.5C182.7 292.3 228.3 292.7 274 292.5C319.7 292.3 365.3 291.7 411.2 291.7C457 291.7 503 292.3 548.8 292.2C594.7 292 640.3 291 686 289.7C731.7 288.3 777.3 286.7 823 286.8C868.7 287 914.3 289 937.2 290L960 291L960 301L937.2 301C914.3 301 868.7 301 823 301C777.3 301 731.7 301 686 301C640.3 301 594.7 301 548.8 301C503 301 457 301 411.2 301C365.3 301 319.7 301 274 301C228.3 301 182.7 301 137 301C91.3 301 45.7 301 22.8 301L0 301Z" fill="#3b3b3b"></path></svg>