<svg viewBox="0 0 24 24" xmlns="http://www.w3.org/2000/svg"><g data-name="Layer 2"><path d="M17 8a5 5 0 0 0 5-5 1 1 0 0 0-1-1H3a1 1 0 0 0-1 1 5 5 0 0 0 5 5h1v2H5a1 1 0 0 0-1 .8l-2 10A1 1 0 0 0 3 22h18a1 1 0 0 0 1-1.2l-2-10a1 1 0 0 0-1-.8h-3V8ZM4.17 4h15.66A3 3 0 0 1 17 6H7a3 3 0 0 1-2.83-2Zm15.61 16H4.22l1.6-8h12.36ZM14 10h-4V8h4Z" fill="#a6f7db" class="fill-000000"></path><path d="M12 13a3 3 0 1 0 3 3 3 3 0 0 0-3-3Zm0 4a1 1 0 1 1 1-1 1 1 0 0 1-1 1Z" fill="#a6f7db" class="fill-000000"></path></g></svg>