<svg viewBox="0 0 48 48" xmlns="http://www.w3.org/2000/svg"><g data-name="49-Responsive"><path d="M45 0H3a3 3 0 0 0-3 3v32a3 3 0 0 0 3 3h13v4.28l-2.32.77A1 1 0 0 0 13 44v2h-2v2h17v-2H15v-1.28l2.16-.72H28v-2H18v-4h10v-2H3a1 1 0 0 1-1-1v-6h26v-2H2V3a1 1 0 0 1 1-1h42a1 1 0 0 1 1 1v15h2V3a3 3 0 0 0-3-3Z" fill="#a6f7db" class="fill-000000"></path><path d="M46 20H32a2 2 0 0 0-2 2v24a2 2 0 0 0 2 2h14a2 2 0 0 0 2-2V22a2 2 0 0 0-2-2Zm0 26H32v-3h14Zm0-5H32V27h14Zm0-16H32v-3h14Z" fill="#a6f7db" class="fill-000000"></path></g></svg>